# xmcd
#
# Track frame offsets: 
#        300
#        13360
#        25389
#        36401
#        48263
#        60028
#        73270
#        83350
#        97274
#        110600
#        124594
#        135118
#        151230
#        159876
#        165606
#        173868
#        180335
#        186277
#        196357
#        202526
#        207590
#        217466
#        223909
#        231943
#
# Disc length: 3189 seconds
#
# Revision: 0
# Processed by: cddbd v1.5.2PL0 Copyright (c) Steve Scherf et al.
# Submitted via: ExactAudioCopy v0.99pb4
#
DISCID=540c7118
DTITLE=Dolly Parton - Loretta Lynn and Tammy Wyinette - Honky Tonk Angel
DTITLE=s
DYEAR=1993
DGENRE=Country
TTITLE0=It Wasn't God Who Made Honky Tonk
TTITLE1=Put It Off Until Tomorrow
TTITLE2=Silver Threads And Golden Needles
TTITLE3=Please Help Me, I'm Falling (In Love With You)
TTITLE4=Sittin' On The Front Porch Swing
TTITLE5=Wings Of A Dove
TTITLE6=I Forgot More Than You'll Ever Know
TTITLE7=Wouldn't It Be Great
TTITLE8=That's The Way It Should Have Been
TTITLE9=Let Her Fly
TTITLE10=Lovesick Blues (Featuring Patsy Cline)
TTITLE11=I Dreamed Of A Hillbilly Heaven
TTITLE12=You're No Good
TTITLE13=Silver Threads And Golden Needles
TTITLE14=Desperado
TTITLE15=Love Is A Rose
TTITLE16=That'll Be The Day
TTITLE17=Long, Long Time
TTITLE18=Different Drum
TTITLE19=When Will I Be Loved
TTITLE20=Love Has No Pride
TTITLE21=Heat Wave
TTITLE22=It Doesn't Matter Anymore
TTITLE23=Tracks Of My Tears
EXTD=
EXTT0=
EXTT1=
EXTT2=
EXTT3=
EXTT4=
EXTT5=
EXTT6=
EXTT7=
EXTT8=
EXTT9=
EXTT10=
EXTT11=
EXTT12=
EXTT13=
EXTT14=
EXTT15=
EXTT16=
EXTT17=
EXTT18=
EXTT19=
EXTT20=
EXTT21=
EXTT22=
EXTT23=
PLAYORDER=
